#!OML:ASF I:\Actors\actors\Patient Classification 1\Patient 1\Session 1\Subject1.ASF
:FULLY-SPECIFIED
:DEGREES
1461
root -0.642424 17.5603 7.69661 8.60503 -3.6308 -7.44731
lowerback 0.59185 0.967298 5.98467
upperback -11.5609 1.92285 1.68447
thorax -12.7385 0.41114 -1.71013
lowerneck -16.9038 -3.86781 -1.06209
upperneck 28.8236 -6.89917 4.81579
head 12.6052 -2.56271 0.924632
rclavicle -1.71452e-014 1.74931e-014
rhumerus -51.1251 4.05472 -87.2062
rradius 106.434
rwrist 35.4732
rhand -36.5452 -35.4882
rfingers 7.12502
rthumb -9.63583 -65.2478
lclavicle -1.71452e-014 1.74931e-014
lhumerus -62.298 -2.1242 94.5123
lradius 91.2981
lwrist -27.4272
lhand -51.3461 -73.1618
lfingers 7.12502
lthumb -23.8805 -44.6265
rfemur -1.03996 23.3937 27.2245
rtibia 1.61389
rfoot -12.938 -24.1876
rtoes 6.1159
lfemur 4.85461 -40.0817 -13.9267
ltibia -4.05653
lfoot -14.4381 47.8956
ltoes 5.49172
1462
root -0.645477 17.5603 7.71018 8.57427 -3.22843 -7.40418
lowerback -0.0153208 0.940454 5.75363
upperback -11.0251 1.80502 1.80484
thorax -11.7417 0.42218 -1.43019
lowerneck -17.1977 -4.017 -1.30561
upperneck 27.8129 -6.97231 4.86335
head 12.2731 -2.63258 0.96337
rclavicle 2.13694e-015 1.25234e-014
rhumerus -54.6514 1.37806 -86.1756
rradius 102.462
rwrist 36.6112
rhand -37.0165 -34.8429
rfingers 7.12502
rthumb -10.0905 -64.5809
lclavicle 2.13694e-015 1.25234e-014
lhumerus -62.9575 1.58046 92.3127
lradius 85.3001
lwrist -26.7909
lhand -52.0215 -74.091
lfingers 7.12502
lthumb -24.5281 -45.642
rfemur -0.846739 23.4629 27.2949
rtibia 1.51491
rfoot -13.0949 -24.6123
rtoes 6.34992
lfemur 4.80576 -40.2148 -13.908
ltibia -4.03751
lfoot -14.2183 47.6661
ltoes 5.24405
1463
root -0.64822 17.5598 7.71696 8.53336 -2.70785 -7.27324
lowerback 0.440057 0.996821 5.90404
upperback -11.2896 1.92014 1.53716
thorax -12.3155 0.426734 -1.82387
lowerneck -16.7071 -4.26529 -1.54641
upperneck 27.3629 -7.29545 5.10014
head 12.0283 -2.79315 1.05009
rclavicle -1.93815e-015 -1.98785e-016
rhumerus -58.8344 -1.89159 -84.9047
rradius 97.7117
rwrist 37.1518
rhand -36.6571 -33.0133
rfingers 7.12502
rthumb -9.74381 -62.7679
lclavicle -1.93815e-015 -1.98785e-016
lhumerus -64.896 4.23443 89.6943
lradius 79.6206
lwrist -24.5391
lhand -49.2836 -68.2645
lfingers 7.12502
lthumb -21.9014 -39.4841
rfemur -0.700311 23.5073 27.245
rtibia 1.44374
rfoot -13.3237 -25.1111
rtoes 6.72341
lfemur 4.51092 -40.0256 -13.8243
ltibia -3.89814
lfoot -13.4405 47.039
ltoes 4.1123
1464
root -0.651602 17.5592 7.72138 8.44498 -2.37519 -7.22374
lowerback 0.55887 1.04219 5.94801
upperback -11.3087 1.98764 1.43586
thorax -12.4023 0.446085 -1.9684
lowerneck -16.4417 -4.39265 -1.72701
upperneck 27.0361 -7.42469 5.18748
head 11.863 -2.87223 1.09756
rclavicle 8.44835e-016 9.14409e-015
rhumerus -61.7593 -4.53385 -83.3561
rradius 92.0908
rwrist 37.014
rhand -36.2926 -31.7422
rfingers 7.12502
rthumb -9.39214 -61.513
lclavicle 8.44835e-016 9.14409e-015
lhumerus -65.0624 6.78528 86.9115
lradius 72.0829
lwrist -22.2017
lhand -49.0841 -70.733
lfingers 7.12502
lthumb -21.7098 -41.9304
rfemur -0.594463 23.4333 27.2688
rtibia 1.47575
rfoot -13.4297 -25.3243
rtoes 6.6887
lfemur 4.35196 -39.6293 -13.713
ltibia -3.83549
lfoot -12.5427 46.3957
ltoes 2.63766
1465
root -0.656803 17.5616 7.727 8.19285 -2.04523 -7.19474
lowerback 0.571468 1.00105 5.90922
upperback -11.1662 1.92392 1.43487
thorax -12.2464 0.426474 -1.9416
lowerneck -16.3531 -4.47454 -1.9346
upperneck 26.9091 -7.50648 5.30538
head 11.8133 -2.91998 1.16502
rclavicle 1.28216e-014 -2.84262e-014
rhumerus -63.7336 -6.61968 -81.7449
rradius 85.8292
rwrist 36.5167
rhand -36.0572 -31.191
rfingers 7.12502
rthumb -9.16503 -60.9718
lclavicle 1.28216e-014 -2.84262e-014
lhumerus -65.9523 8.59116 84.5237
lradius 67.6804
lwrist -21.3824
lhand -50.2268 -68.2581
lfingers 7.12502
lthumb -22.8068 -39.5865
rfemur -0.234058 23.4577 27.4383
rtibia 1.45882
rfoot -13.5323 -25.6776
rtoes 6.80165
lfemur 4.5019 -39.3623 -13.7589
ltibia -3.79979
lfoot -12.2979 45.762
ltoes 2.16583
1466
root -0.65841 17.5641 7.73309 7.71207 -1.56204 -7.29698
lowerback 0.75512 0.870629 6.11617
upperback -10.9691 1.76826 1.43352
thorax -12.1383 0.336798 -2.04515
lowerneck -16.3067 -4.51204 -2.03745
upperneck 26.9629 -7.5644 5.40371
head 11.8367 -2.94352 1.21092
rclavicle -7.8023e-015 -3.77691e-015
rhumerus -65.111 -8.45005 -80.0802
rradius 79.3241
rwrist 36.2615
rhand -35.5708 -30.6279
rfingers 7.12502
rthumb -8.69562 -60.4288
lclavicle -7.8023e-015 -3.77691e-015
lhumerus -65.525 10.2419 81.8882
lradius 61.0676
lwrist -22.0449
lhand -50.5943 -67.2627
lfingers 7.12502
lthumb -23.1594 -38.6349
rfemur 0.507198 23.4378 27.917
rtibia 1.3532
rfoot -13.7703 -26.1309
rtoes 7.11902
lfemur 5.02046 -39.1847 -13.9052
ltibia -3.79701
lfoot -12.3006 45.0683
ltoes 2.18288
